<?xml version="1.0" encoding="UTF-8" standalone="no"?>
<svg
   xmlns:dc="http://purl.org/dc/elements/1.1/"
   xmlns:cc="http://creativecommons.org/ns#"
   xmlns:rdf="http://www.w3.org/1999/02/22-rdf-syntax-ns#"
   xmlns:svg="http://www.w3.org/2000/svg"
   xmlns="http://www.w3.org/2000/svg"
   xmlns:sodipodi="http://sodipodi.sourceforge.net/DTD/sodipodi-0.dtd"
   xmlns:inkscape="http://www.inkscape.org/namespaces/inkscape"
   viewBox="0 0 50.109986 17.111724"
   width="50.111588mm"
   height="17.140539mm"
   version="1.1"
   id="svg10"
   sodipodi:docname="Guy's_and_St_Thomas'_NHS_Foundation_Trust_logo.svg"
   inkscape:version="0.92.3 (2405546, 2018-03-11)">
  <metadata
     id="metadata16">
    <rdf:RDF>
      <cc:Work
         rdf:about="">
        <dc:format>image/svg+xml</dc:format>
        <dc:type
           rdf:resource="http://purl.org/dc/dcmitype/StillImage" />
        <dc:title></dc:title>
      </cc:Work>
    </rdf:RDF>
  </metadata>
  <defs
     id="defs14" />
  <sodipodi:namedview
     pagecolor="#ffffff"
     bordercolor="#ffffff"
     borderopacity="1"
     objecttolerance="10"
     gridtolerance="10"
     guidetolerance="10"
     inkscape:pageopacity="0"
     inkscape:pageshadow="2"
     inkscape:window-width="1366"
     inkscape:window-height="705"
     id="namedview12"
     showgrid="false"
     fit-margin-bottom="0.2"
     fit-margin-top="0.2"
     fit-margin-left="0.2"
     fit-margin-right="0.2"
     inkscape:zoom="1.5118565"
     inkscape:cx="94.717962"
     inkscape:cy="32.467834"
     inkscape:window-x="-8"
     inkscape:window-y="-8"
     inkscape:window-maximized="1"
     inkscape:current-layer="svg10" />
  <path
     d="m 32.409994,0.18602461 h 17.5 V 7.2360246 h -17.5 z"
     id="path2"
     inkscape:connector-curvature="0"
     style="fill:#005eb8" />
  <path
     d="m 16.189994,16.866025 h 0.44 v -1.73 h 0.01 l 0.89,1.73 h 0.57 v -2.32 h -0.44 v 1.73 h -0.01 l -0.88,-1.73 h -0.57 z m 2.42,0 h 0.46 v -1.01 h 0.93 v 1.01 h 0.46 v -2.32 h -0.46 v 0.94 h -0.93 v -0.94 h -0.46 z m 3.68,-2.27 a 1.76,1.76 0 0 0 -0.55,-0.08 c -0.41,0 -0.81,0.19 -0.81,0.71 0,0.77 1.01,0.58 1.01,1.02 0,0.21 -0.24,0.3 -0.41,0.3 a 1.11,1.11 0 0 1 -0.52,-0.14 l -0.04,0.42 c 0.23,0.06 0.34,0.09 0.59,0.09 0.47,0 0.87,-0.19 0.87,-0.7 0,-0.78 -1.01,-0.61 -1.01,-1.01 0,-0.25 0.21,-0.32 0.37,-0.32 0.16,0 0.33,0.04 0.47,0.1 z m 1.48,2.27 h 0.46 v -1.01 h 0.78 v -0.37 h -0.78 v -0.57 h 0.82 v -0.37 h -1.29 z m 1.51,-0.84 c 0,0.49 0.33,0.88 0.89,0.88 0.57,0 0.9,-0.39 0.9,-0.88 a 0.86,0.86 0 0 0 -0.9,-0.91 c -0.5,0 -0.89,0.34 -0.89,0.91 z m 0.46,-0.05 c 0,-0.26 0.14,-0.51 0.43,-0.51 0.29,0 0.43,0.25 0.43,0.51 0,0.28 -0.09,0.59 -0.43,0.59 -0.34,0 -0.43,-0.31 -0.43,-0.59 z m 3.24,-0.81 h -0.44 v 0.84 c 0,0.22 -0.07,0.57 -0.39,0.57 -0.28,0 -0.29,-0.28 -0.29,-0.49 v -0.91 h -0.44 v 1.08 c 0,0.39 0.18,0.67 0.58,0.67 a 0.71,0.71 0 0 0 0.56,-0.27 h 0.01 v 0.23 h 0.42 z m 0.46,1.71 h 0.44 v -0.84 c 0,-0.22 0.07,-0.57 0.39,-0.57 0.28,0 0.29,0.28 0.29,0.49 v 0.91 h 0.44 v -1.08 c 0,-0.39 -0.18,-0.67 -0.58,-0.67 a 0.65,0.65 0 0 0 -0.56,0.27 h -0.01 v -0.23 h -0.42 z m 2.38,-0.86 c 0,-0.23 0.08,-0.54 0.37,-0.54 0.28,0 0.4,0.31 0.4,0.54 0,0.24 -0.1,0.55 -0.39,0.55 -0.29,0 -0.38,-0.32 -0.38,-0.55 z m 0.78,0.86 h 0.43 v -2.49 h -0.44 v 0.98 h -0.01 a 0.61,0.61 0 0 0 -0.51,-0.24 c -0.52,0 -0.72,0.42 -0.72,0.89 0,0.47 0.19,0.9 0.72,0.9 0.21,0 0.39,-0.07 0.52,-0.23 h 0.01 z m 0.98,-1.24 a 0.89,0.89 0 0 1 0.53,-0.19 c 0.26,0 0.39,0.09 0.39,0.37 h -0.25 c -0.19,0 -0.41,0.02 -0.57,0.1 a 0.5,0.5 0 0 0 -0.29,0.49 c 0,0.33 0.3,0.51 0.6,0.51 a 0.61,0.61 0 0 0 0.53,-0.3 h 0.01 c 0,0.05 0,0.17 0.02,0.26 h 0.39 a 7.16,7.16 0 0 1 -0.02,-0.38 l -0.01,-0.43 v -0.22 c 0,-0.5 -0.22,-0.72 -0.74,-0.72 -0.19,0 -0.42,0.05 -0.59,0.13 z m 0.23,0.74 c 0,-0.26 0.3,-0.3 0.49,-0.3 h 0.19 c 0,0.13 -0.02,0.26 -0.09,0.35 a 0.38,0.38 0 0 1 -0.31,0.15 c -0.16,0 -0.28,-0.06 -0.28,-0.21 z m 1.68,-0.02 c 0,0.34 0.19,0.55 0.54,0.55 0.13,0 0.24,-0.01 0.33,-0.04 l -0.01,-0.35 a 0.4,0.4 0 0 1 -0.2,0.05 c -0.17,0 -0.21,-0.14 -0.21,-0.28 v -0.8 h 0.4 v -0.33 h -0.4 v -0.48 l -0.44,0.14 v 0.34 h -0.33 v 0.33 h 0.33 z m 1.15,0.51 h 0.44 v -1.71 h -0.44 z m 0,-2.02 h 0.44 v -0.42 h -0.44 z m 0.8,1.18 c 0,0.49 0.33,0.88 0.89,0.88 0.57,0 0.9,-0.39 0.9,-0.88 a 0.86,0.86 0 0 0 -0.9,-0.91 c -0.5,0 -0.89,0.34 -0.89,0.91 z m 0.46,-0.05 c 0,-0.26 0.14,-0.51 0.43,-0.51 0.29,0 0.43,0.25 0.43,0.51 0,0.28 -0.09,0.59 -0.43,0.59 -0.34,0 -0.43,-0.31 -0.43,-0.59 z m 1.67,0.9 h 0.44 v -0.84 c 0,-0.22 0.07,-0.57 0.39,-0.57 0.28,0 0.29,0.28 0.29,0.49 v 0.91 h 0.44 v -1.08 c 0,-0.39 -0.18,-0.67 -0.58,-0.67 a 0.65,0.65 0 0 0 -0.56,0.27 h -0.01 v -0.23 h -0.42 z m 3.41,0 h 0.46 v -1.95 h 0.66 v -0.37 h -1.79 v 0.37 h 0.66 z m 1.09,0 h 0.44 v -0.63 c 0,-0.25 0,-0.7 0.36,-0.7 0.08,0 0.16,0.01 0.2,0.04 v -0.45 l -0.14,-0.01 c -0.27,0 -0.45,0.27 -0.47,0.43 h -0.01 v -0.39 h -0.4 z m 2.85,-1.71 h -0.44 v 0.84 c 0,0.22 -0.07,0.57 -0.39,0.57 -0.28,0 -0.29,-0.28 -0.29,-0.49 v -0.91 h -0.44 v 1.08 c 0,0.39 0.18,0.67 0.58,0.67 a 0.71,0.71 0 0 0 0.56,-0.27 h 0.01 v 0.23 h 0.42 z m 1.5,0.02 c -0.14,-0.03 -0.28,-0.06 -0.48,-0.06 -0.35,0 -0.67,0.16 -0.67,0.53 0,0.62 0.77,0.39 0.77,0.72 0,0.17 -0.18,0.21 -0.29,0.21 a 0.97,0.97 0 0 1 -0.44,-0.11 l -0.03,0.37 a 2,2 0 0 0 0.5,0.07 c 0.36,0 0.72,-0.16 0.72,-0.56 0,-0.62 -0.77,-0.44 -0.77,-0.72 0,-0.15 0.14,-0.19 0.26,-0.19 0.16,0 0.26,0.03 0.4,0.07 z m 0.57,1.17 c 0,0.34 0.19,0.55 0.54,0.55 0.13,0 0.24,-0.01 0.33,-0.04 l -0.01,-0.35 a 0.4,0.4 0 0 1 -0.2,0.05 c -0.17,0 -0.21,-0.14 -0.21,-0.28 v -0.8 h 0.4 v -0.33 h -0.4 v -0.48 l -0.44,0.14 v 0.34 h -0.33 v 0.33 h 0.33"
     id="path4"
     inkscape:connector-curvature="0"
     style="fill:#ffffff" />
  <path
     d="m 3.1299936,9.3360246 a 3.41,3.41 0 0 0 -1.02,-0.14 c -1.17999998,0 -1.90999998,0.67 -1.90999998,1.8600004 0,1.17 0.78,1.74 1.90999998,1.74 0.37,0 0.76,-0.08 1.12,-0.18 v -1.87 h -1.4 v 0.55 h 0.74 v 0.91 a 1.9,1.9 0 0 1 -0.46,0.05 c -0.74,0 -1.17999998,-0.53 -1.17999998,-1.24 0,-0.71 0.44999998,-1.2600004 1.25999998,-1.2600004 0.28,0 0.63,0.06 0.9,0.18 z m 3.13,0.8299994 h -0.67 v 1.250001 c 0,0.33 -0.11,0.85 -0.59,0.85 -0.43,0 -0.43,-0.42 -0.43,-0.74 v -1.370001 h -0.67 v 1.620001 c 0,0.58 0.26,1 0.87,1 0.35,0 0.64,-0.16 0.84,-0.41 h 0.01 v 0.35 h 0.63 z m 1.13,0 h -0.74 l 0.98,2.690001 c 0,0.27 -0.16,0.46 -0.43,0.46 a 0.98,0.98 0 0 1 -0.34,-0.05 l -0.05,0.49 c 0.15,0.05 0.31,0.07 0.47,0.07 0.7,0 0.85,-0.56 1.07,-1.12 l 0.96,-2.540001 h -0.68 l -0.62,1.870001 h -0.01 z m 2.14,0.330001 h 0.5900004 l 0.46,-1.2400004 H 9.8499936 Z m 2.7600004,-0.300001 c -0.21,-0.05 -0.41,-0.1 -0.73,-0.1 -0.52,0 -1,0.240001 -1,0.8 0,0.93 1.16,0.58 1.16,1.08 0,0.25 -0.27,0.31 -0.44,0.31 -0.23,0 -0.45,-0.07 -0.66,-0.17 l -0.04,0.550001 c 0.24,0.07 0.5,0.109999 0.76,0.109999 0.54,0 1.07,-0.24 1.07,-0.84 0,-0.929999 -1.16,-0.67 -1.16,-1.07 0,-0.22 0.21,-0.279999 0.39,-0.279999 0.24,0 0.39,0.04 0.6,0.109999 z m 2.16,0.670001 c 0.22,-0.17 0.51,-0.28 0.79,-0.28 0.39,0 0.58,0.14 0.58,0.55 h -0.37 c -0.28,0 -0.61,0.03 -0.86,0.15 -0.25,0.12 -0.44,0.35 -0.44,0.73 0,0.49 0.44,0.76 0.9,0.76 0.3,0 0.64,-0.16 0.79,-0.44 h 0.01 l 0.03,0.38 h 0.59 a 11.25,11.25 0 0 1 -0.03,-0.57 l -0.01,-0.64 v -0.33 c 0,-0.76 -0.32,-1.08 -1.1,-1.08 -0.28,0 -0.63,0.08 -0.89,0.19 z m 0.34,1.11 c 0,-0.39 0.44,-0.44 0.74,-0.44 h 0.29 c 0,0.2 -0.03,0.38 -0.14,0.53 a 0.57,0.57 0 0 1 -0.47,0.23 c -0.24,0 -0.42,-0.1 -0.42,-0.31 z m 2.29,0.74 h 0.67 v -1.25 c 0,-0.33 0.11,-0.85 0.59,-0.85 0.43,0 0.43,0.42 0.43,0.74 v 1.37 h 0.67 v -1.62 c 0,-0.58 -0.26,-1.000001 -0.87,-1.000001 -0.35,0 -0.63,0.110001 -0.84,0.410001 h -0.01 v -0.350001 h -0.63 z m 3.57,-1.29 c 0,-0.34 0.12,-0.82 0.55,-0.82 0.43,0 0.6,0.46 0.6,0.82 0,0.36 -0.14,0.83 -0.59,0.83 -0.44,0 -0.56,-0.48 -0.56,-0.83 z m 1.17,1.29 h 0.65 V 8.9860246 h -0.67 v 1.4700004 h -0.01 a 0.91,0.91 0 0 0 -0.77,-0.36 c -0.79,0 -1.07,0.63 -1.07,1.33 0,0.7 0.29,1.35 1.07,1.35 0.31,0 0.59,-0.1 0.79,-0.35 h 0.01 z m 4.71,-3.4100004 a 2.61,2.61 0 0 0 -0.83,-0.12 c -0.61,0 -1.21,0.28 -1.21,1.0600004 0,1.15 1.52,0.88 1.52,1.54 0,0.31 -0.35,0.45 -0.62,0.45 a 1.68,1.68 0 0 1 -0.79,-0.21 l -0.07,0.63 c 0.34,0.09 0.51,0.13 0.89,0.13 0.7,0 1.3,-0.29 1.3,-1.05 0,-1.16 -1.52,-0.91 -1.52,-1.51 0,-0.3800004 0.31,-0.4800004 0.55,-0.4800004 0.24,0 0.49,0.06 0.71,0.15 z m 1,2.6400004 c 0,0.51 0.29,0.83 0.81,0.83 0.2,0 0.35,-0.02 0.49,-0.06 l -0.02,-0.53 a 0.59,0.59 0 0 1 -0.3,0.07 c -0.25,0 -0.31,-0.2 -0.31,-0.42 v -1.19 h 0.59 v -0.490001 h -0.59 V 9.4260246 l -0.67,0.21 v 0.5099994 h -0.49 v 0.490001 h 0.49 z m 3.79,0.77 h 0.7 V 9.7860246 h 1 v -0.55 h -2.69 v 0.55 h 1 z m 2.07,0 h 0.67 v -1.25 c 0,-0.33 0.11,-0.85 0.59,-0.85 0.43,0 0.43,0.42 0.43,0.74 v 1.37 h 0.67 v -1.62 c 0,-0.58 -0.26,-1.000001 -0.87,-1.000001 a 0.95,0.95 0 0 0 -0.81,0.410001 h -0.01 V 8.9960246 h -0.67 z m 2.88,-1.26 c 0,0.74 0.49,1.32 1.34,1.32 0.85,0 1.34,-0.59 1.34,-1.32 0,-0.85 -0.58,-1.36 -1.34,-1.36 -0.76,0 -1.34,0.51 -1.34,1.36 z m 0.7,-0.08 c 0,-0.38 0.21,-0.76 0.64,-0.76 0.44,0 0.65,0.37 0.65,0.76 0,0.43 -0.13,0.89 -0.65,0.89 -0.51,0 -0.64,-0.46 -0.64,-0.89 z m 2.5,1.34 h 0.67 v -1.24 c 0,-0.33 0.06,-0.86 0.5,-0.86 0.38,0 0.38,0.34 0.38,0.58 v 1.53 h 0.67 v -1.24 c 0,-0.33 0.06,-0.86 0.5,-0.86 0.38,0 0.38,0.34 0.38,0.58 v 1.53 h 0.67 v -1.62 c 0,-0.57 -0.18,-1.000001 -0.81,-1.000001 -0.31,0 -0.65,0.140001 -0.8,0.450001 -0.14,-0.32 -0.4,-0.450001 -0.76,-0.450001 a 0.9,0.9 0 0 0 -0.76,0.420001 h -0.01 v -0.360001 h -0.62 z m 4.57,-1.86 c 0.22,-0.17 0.51,-0.28 0.79,-0.28 0.39,0 0.58,0.14 0.58,0.55 h -0.37 c -0.28,0 -0.61,0.03 -0.86,0.15 -0.25,0.12 -0.44,0.35 -0.44,0.73 0,0.49 0.44,0.76 0.9,0.76 0.3,0 0.64,-0.16 0.79,-0.44 h 0.01 l 0.03,0.38 h 0.59 a 11.25,11.25 0 0 1 -0.03,-0.57 l -0.01,-0.64 v -0.33 c 0,-0.76 -0.32,-1.08 -1.1,-1.08 -0.28,0 -0.63,0.08 -0.89,0.19 z m 0.34,1.11 c 0,-0.39 0.44,-0.44 0.74,-0.44 h 0.29 c 0,0.2 -0.03,0.38 -0.14,0.53 a 0.57,0.57 0 0 1 -0.47,0.23 c -0.24,0 -0.42,-0.1 -0.42,-0.31 z m 3.86,-1.790001 c -0.21,-0.05 -0.41,-0.1 -0.73,-0.1 -0.52,0 -1,0.24 -1,0.8 0,0.93 1.16,0.58 1.16,1.08 0,0.25 -0.27,0.31 -0.44,0.31 -0.23,0 -0.45,-0.07 -0.66,-0.17 l -0.04,0.55 c 0.24,0.07 0.5,0.11 0.76,0.11 0.54,0 1.07,-0.24 1.07,-0.84 0,-0.93 -1.16,-0.67 -1.16,-1.07 0,-0.22 0.21,-0.28 0.39,-0.28 0.24,0 0.39,0.04 0.6,0.11 z m 0.47,0.300001 h 0.59 l 0.46,-1.2400004 h -0.73"
     id="path6"
     inkscape:connector-curvature="0"
     style="fill:#ffffff" />
  <path
     d="M 49.909994,7.2360246 V 0.18602461 h -17.51 V 7.2360246 Z m -10.47,-6.36999999 -1.21,5.67999999 h -1.9 l -1.19,-3.93 h -0.02 l -0.79,3.93 h -1.44 l 1.22,-5.67999999 h 1.9 l 1.17,3.93999999 h 0.02 l 0.8,-3.93999999 z m 5.43,0 -1.19,5.67999999 h -1.53 l 0.51,-2.43 h -1.81 l -0.51,2.43 h -1.53 l 1.19,-5.67999999 h 1.53 l -0.45,2.16999999 h 1.81 l 0.45,-2.16999999 z m 4.39,0.15999999 -0.37,1.13 c -0.29,-0.14 -0.7,-0.26 -1.26,-0.26 -0.6,0 -1.1,0.09 -1.1,0.55 0,0.8 2.21,0.5 2.21,2.23 0,1.57 -1.46,1.98 -2.79,1.98 -0.59,0 -1.27,-0.14 -1.77,-0.29 l 0.36,-1.15 c 0.3,0.2 0.91,0.33 1.41,0.33 0.48,0 1.22,-0.09 1.22,-0.68 0,-0.91 -2.21,-0.57 -2.21,-2.17 0,-1.46 1.29,-1.89999999 2.54,-1.89999999 0.7,0 1.36,0.07 1.75,0.24999999"
     id="path8"
     inkscape:connector-curvature="0"
     style="fill:#ffffff" />
</svg>
